<mxfile host="app.diagrams.net" modified="2022-07-20T05:17:56.209Z" agent="5.0 (Windows NT 10.0; Win64; x64) AppleWebKit/537.36 (KHTML, like Gecko) Chrome/103.0.5060.114 Safari/537.36 Edg/103.0.1264.62" etag="r35noCF0LHH7xVSHgNXd" version="20.1.2" type="github">
  <diagram id="pZZk6vSGmW28ki0lnpUB" name="第 1 页">
    <mxGraphModel dx="2014" dy="1121" grid="1" gridSize="10" guides="1" tooltips="1" connect="1" arrows="1" fold="1" page="1" pageScale="1" pageWidth="827" pageHeight="1169" math="0" shadow="0">
      <root>
        <mxCell id="0" />
        <mxCell id="1" parent="0" />
        <mxCell id="S_ji3x8xokRMvjwAo2H5-1" value="" style="shape=image;verticalLabelPosition=bottom;verticalAlign=top;imageAspect=0;aspect=fixed;image=data:image/png,iVBORw0KGgoAAAANSUhEUgAAAcIAAAIiCAYAAABbtMhaAAAAAXNSR0IArs4c6QAAAARnQU1BAACxjwv8YQUAAAAJcEhZcwAADsMAAA7DAcdvqGQAAGxLSURBVHhe7Z0JvJXT/v//uJfM83gRQj+uzGNm4SLzmCFDGRO5iCbNc9SNElJSqatSkgYNmkmRDCFU6lLGikSpfP7r80ztjv209zlnPfusffbn/XqtV2c97fHZe6/3s9b6ru/6fxBCCCEKGIlQCCFEQSMRCiGEKGgkQiGEEAWNRCiEEKKgkQiFEEIUNBKhEEKIgkYiFEIIUdBIhEIIIQoaiVAIIURBIxEKIYQoaCRCIYQQBY1EKIRIy4ppwKzVQSVg/bdAu3uAwQuCA0KUAyRCIcRf+QV45FJgYqoI1wNDHgW6DABqNQmOBUiQIp+RCIUQf2HeSOD++sD8dcEBw9qPgKa9jfSMEHu1CQ6STQjy2/HAPQ2BBSmPI4RrSIRCiL+yBmjbClgVVMm7nYFXlvl/jzN/h8QJkr3ER+sAA5oDTSYHB4VwEIlQCPFXjAFbtfN86GN6dE+1BX4MqtO7BX8Y4gT5UVeg9yJfiG26BweFcBCJUAjxF9Z9CbR43hv19PkJ6GBkFo5wTgnFFifItUBn0zv0/Lja/P0f76gQTiIRCiH+wuqJpkc4OqgY1kwzMjPHQl5/KvgjRpDrPgXavuT/zW5lt/D2QjiIRCgKjt9/D/4QsSzrB3T6OKgYWO/5TVAx3cSeT/h/xgnyJyPB7qZX6WF6hN2fDv4WwkEkQlEwMJjj/vuB664LDohY5rQHBqwIKoaPegCjwgsI08N7vJP/Z5wgp3VJWXph7vfUM8HfQjiIRCgKAvYCr7oKOPtsYEVKAy/SM6IFMCWKlDFSMz29d4L6+q+BDr39v+ME2c+I8JtggnH9EuCJPv7fQriIRCjKPV98Yb7o5pt+xBHAl18CP/4I/PYb8OefwQ3ExhiBPdMcWBiIjLxuxPbBWv/vFUOM8Gb7f6cVpLldD3M88uM0oNO4oCKEg0iEolzz1Ve+BLMpFSv6/06YENy5UDFia9ls4zWEo0xPb2YgvPEdgEnBsGdaQZr/e6q79zAeX/cEei8NKkI4iPnZC1E+ef994B//MI1yEMDBnmHHjsBxx20swKJlhx2Am24CmjQBnn/eNPzj/Z7kH3/4j1PeWW+kVb+l17GLmG7O22h28Vaa3p2RXzj9l1aQ5nZdntxw/yFtgNmpDyaEY5ifvRDljzfeAHbfHXjlleBAGii2WbOAbt2AmjWBSpV8EY4aBfTpAzRvDtx6K3DWWcABBwBbbQXstx9w+un+7R97DOjVy+9BLlhgGv5y0tivGmQuBF4IKgHfmXrHD4C55qKi2yfBQUNaQZp6p85Bj9D83cHcJhSnEC4iEYpyByW2116mkZ4eHCgGjCyNY906f6h14kTgBSOGZs2AW24BzjzTH1alKPffHzjjDODmm4GmTf3b8fYLF/r3zwd+NxcCnd4OKgHrvzHv9Rjg7AbA8uAYSStIY8CO7f05wpVjTO+wBJ+DELlEIhTlitatgQMPBD77LDiQQ9gjZM/wzTeB3r19EVKI7EGyJ0lRUpgUJ3ua7HFS2pMm+YJ1RZTrlpjXQ4sVYb15f0VfYlpBmouJF0xv+YNVwFPm+Cd5cgEgCheJUJQLKJG77gKOPRZY6mhgBodi58/3h1I5pMo5SM5FnnYasO++vig5BMslHrfdBrRoAbz4IjB5MrCIOTs30VstS9IJ8pv+wDGHAw3GBweEcBiJUOQ9q0zP45JLgH/9C1i5MjiYh1CUDMoZNw7o2RNo3Bi48Ubg1FP9oB+K8qCDgHPOAWrVAlq2BPr2BaZOBf73P/dEWV7mTEX5RyIUec333wMnneQPNZb3hnfNGuDzz4GxY4HnngMaNQJuuAGoWhXYe29flAz4qVYNqF3bHybub3pm06YBX3+tdZNCxCERiryFvadDDvGjNwWwejUwb54fMfvss0DDhkCNGsDJJ/vBQxUqAAcfDJx3HnDHHUCbNsBLL/lBRd98I1GKwkUizDMWvwvMXBhUCpiZM/1eEBt8kR1MM8cgojFjgB49gEcf9fOuske9556+KA89FDj/fODOO4G2bYEBA4C33nJ33lUIG0iE+cQq4MYTgcamB/RIJ9MjShPZVwi8/rq/RnDEiOCAsALTzn36qb+O8umnzXfsEeDaa4ETzXdujz2ArbcGKlf252IZmNSuHfDf/wIzZgDffhs8iBB5iESYT6w1V+mmcVqy3vy5GOjS2DRa5t9CgnNj7AmyRyhyC4OS5s4FRo4EuncH6tcHrrkGOP54YLfdgG22Af7v/4ALLgDuuQfo0AF4+WXgnXeA774LHkQIB5EI84xPnzJX618EldXA4FbAkHDftyz54AM/PD91HZvL4fkhnAvkHBfnBoV7/Por8PHHfo+d2Xoeesjf8YMp7XbdFdh2W+Dww4GLLgLq1PHT3Q0a5F/UMOhJiLJCInSY1aa3N9k0EhutCFgOtGpqrrBDaZle4tA2wGtGZNnC3Re4jo1iKbqOLQzPZ6qxCy8E+vUr+6hDRoMyKpRDdGow8xcubfnoI/NdfQ148kngwQeBK6/0137usguw3XbAP/8JVK8O3Hsv0KmTudAbDLz7rv+dFSIpJEKHeflG4JrGQP1HTOOR0gv6zlxxN3/VS+DhY3qGvRqanl1q7qsSwPD8YcN8CbLw6v3664FTTtkQdcgoTUYdhsEUAwcCb7+d3BwRG0/OSXGdIIfmRPnl55/90Yrhw4GuXYF//xu44grgmGOAnXYCtt/e30rr4ouBunWBJ57wc8m+9x7w00/BgxQo//mPP78rSoZE6DDvG9E8t8T8YXpEY7sAj4/y/vSYaK6WB8wPKgZuftrc9BS/LuHw5i+/APXqbZAgG5miMOqQP7bRozcOpjjhBD94JZwjYk+Sc0SpQ18//BA8SDFhL5CBGfmSp1MkBzdUnjMHeNVcBLLhf+AB4LLLgKOOAnbc0d81pEoV4NJLgfvvBzp3BoYOBWbPBpYtCx6knMHRkttv94ef1WsuORKhS5ir2vvM1e54IyWyzkinkRFO6IB5g4FWQ4Ks/uwFPga8lbLb+orJQAsjnuK6kJlJQgGycI1ZSUidI+LWR5wjCoe+dt7ZH/oKr+gpXfZAM8H0YkJkw/Ll/tZbHNWgBClDSvHII31JUpaUJuXJ718Xc3HJ2/I+lGy+wdESXnRyKJm/PVFyJEJXMPYaWQc4r8iWNWNamR9rSsTdQnOF2+41X47rvzc9t2bA3JRlFFNNT25oMdd8cW1ZKEFmKUmq9xUOffGKnvv8pRPhtaaL+f/MC0kte+65J2rUqIFnn30W87hiXIgSwF4hh1E5nMoRj/vu84fc2YvksCuHX48+Grj8cr+3yV4nh2n5neWIiUtwXSd/rxyR0WhJ6ZEIHWC9+YH2NT+8Y64GFhT5Uq83EmzZ3HzxU7p5H/cCOk3y/163GGjbFPgwuCLk7Zt32limm4K7JXARNYNR+MMqy/VghxxyyEYCzLbst99+uPnmm/HCCy/gK27jIEQJ4NAiA3OGcKf9x/15SI5eMICHoxkc1eB8JectGejDgB8G/nz4YW5z3H7yib+bifnqe8kOROmRCB1h7XygWTsjojTjmssnAk0HbBgiZe9xuJHjK18H1SXmCvdR03MMllWMfsz8fxZXsNyUdp99/CwjZU2q2GZwhXYRfvvtN0yYMAFNmjTBqaeeutHtM5VKlSrh9ttvx0svvYQlSzjpKkTx4Tw3fzOMZGVEK5eAcCkIg8q4NISRr5wG4JIRTgtweoBJHxgpm27okjuLUGrFicZmpPeWWwLt2/siVFIJO0iEDrFyppFhT/OjMX+vmGOuSjsYqQUjgR+ZXmDX1Ku/FebH2CIlOGaNuW1noGEb8yM83/QizY9vU3BRNANcOPRTlqxbt24jaX3DpJclYKW5JB81ahTq16+PE044YaPHzFQONy3Zvffea3oCQ0yvQBEHomRwaQ8Dw5hEgMkEGDDGObzDDvMDyZh0gMkHrr4aePhhX2Rh4Q4j3JaLYotbIsQE65tv7i99opB5P04xiNIjETrGklFAmyFGZOcAD5orxm6mp3fvk8CPa4E3nwD6zg1uaFg5FWg91OsgRqxaZCQ3xtw+Tc8yJMzOkqbjlVN+NZfJqUJazazRCbF8+XK8+uqrqFevHo488siNnjdTOeaYY/Dvf/8br732Gn7mRKcQJYDTDvzNMS0dE56br1bGwnW9THzBIdm//x0YH+zvyCFZ/j+XMInSY06lcI2PewOnVDNXfcFaie8mAY92MXL7w1wxmi/+ix/6x2nAweZH8nYx/MGrTmZn+SLMTlNG/O9//zM/5A2y+bOMtz747rvvzJX8y+Yq/h783//930avLVM56aST0KBBA7zxxhtYpcWOIkuY7JxBOVwexMQW7BVyeNV8pdIWDqOGPPOMf4zRr6L0mFMpnMMIrvf15qrx/aBuWD7NSOx54Hfzf+NMz7DtMD8gZtVooFEWw5thdhb++Mo6O8vUqVPNj3iDSPIBirtfv36oVasWDjzwwI1ef6Zy+umno2nTppg4cWKivV5RvmA2J4qRySyKjtibr5P5bvkJL0TpkQjziPn9gY5BtOhXRoANGgJPPAT8q+WGhfbpYOg3t9bhmqqy7rB069YtEgSHKMsL8+fPR69evcyV/U34xz/+Eb3HTGWLLbZAtWrV0Lp1a0yfPt1csGzqkxSFApd5MJMTI1bTLTPiWl/z9fE2YRalRyLMJ9YBzz2YMhRqpPb2SGDOJuI7GCTJ+QVO3Jf1eqPUNYIMaikkPv30Uzz99NO45pprsNtuu0XnIVPZeuutcdFFF6FTp06YNWsW1rueGV2UGq6zNddH3i4ecXARvfl6eAkqROmRCB1n9RfA4Ikb1gV++wxw35igkgHOKRxwgL9vXFmz1VZbRY07ozPFBjg/OmfOHHTp0gWXXXYZdthhh+hcZSo77rgjLr/8cnTt2hUffvhhmc+1itLBRfyMDOWF66bgMg3z8Xv7RIrSIxHmAcu5rKIJ8OJgoPH5wK3Dgv/YBFOm+LuO9+8fHCgj2DCnNtwfMwebKBZcYjJz5kx06NDB9BIu2OiiIlPZw7SU1113HXr06IHPmEJIOAsz3Wy2Wfo8v0VhJhzz8XpFlB6dxjxh3femZ9gVaNsX+CnD6BgTXfNKccKE4EAZsWbNmo0a5WXlNfNxGcPzzACkVq1a4ZxzzjGN6WYbnfdNlX333Rc1a9ZE7969lZWnDOHCfA6HMv1bNpiPLiqi9Og0ljN4Ncn0S0z7VJZw3V5qg8tejSgbSpuVp3bt2ujfv7+y8iQAY6MYM8bAGC7GLw6MKFX+BztIhOUExlBwTRInz//3v+BgGcHE2KmNqXAbZuUZPXo0HnnkkWJn5TnssMNQp04dDB48GD+UdK+tAoUDJExswRymixcHB4uBRGgPtVLlAO4TyLRNZ59d9tvJvP766xs1lCL/Sc3Kc9RRR230+WYqvP0D5gpt+PDh5ruZh3sdJcTnn/uJvA88sORbKEmE9lBLledwZ+7TTvMX1mazv1+SNGvWLGoAGfJfiDA4aNKkSRg2bBjat2+P999/v9wL4Pvvv8egQYNKlJXnxBNPxKOPPur1SJlyrxAwXw8vXdoppxQv4XZRJEJ7SIR5zMKF/o7w3Cm+rKPmU+eeuOatEGHWmNRGPrXstNNOOProo72lDuwhcbkDe0kffPABfnFtszvLlCYrz2nmKu+xxx7Dm2++WS6y8nDHCS6PsJERRiK0h0SYpzDzxD/+wUwtwYEyJLXhGh9mBS4wGBF7xhlneOeA2XO4VCE8J0wewE2FGzZsaBrA601P4BTstddeG0V37mJatWOPPRZXXnklHnzwQTz11FMYMWIEPvroo3LfUyppVp7NjVGYlYfRstOmTcMff/wRPKKbNGvmL49gvl8bSIT2kAjzkNGj/eURw7JYT5gkzHKS2jAtZBe1AFmwYIE3JFixYkXMnZuyPUgGfv/9d0+YY8aM8db5cYiQa/6YxJvr/1LPLbPRHH/88bj66qvx8MMPe7IdOXKk93zlPdF3alae3XfffaPzsqlSoUIFXHjhhd76S67DLMusPEyqHW6hZAuJ0B4SYZ7BHxKT8L79dnCgjGBIfmqjUyjzO0Vh2rM999wTxx13HJYuXRoctQPP8SeffOLts9i9e3evZ0kZMLKzaJq2VEEw+pPi4LwbJULhllc4J8vh5f/85z/FzsrD2/I+vC8fI6msPJzDT91CyRYSoT0kwjyCQyuVKvkRZ2UJtyxKbVAKNa0X5/i22WYbVK9evUwuBPiczNTDSF0G5qR+Jrvuumv0N4dgKeuTTz4ZNWrU8LaMeuaZZ7xto7jUpTzviJGalYe9Q/YSU8/TpgovLnjhwYsKXlCUBCbNZnRoCe++SSRCe0iEjjNtGrDvvkCtWjA9AUoo+I8y4r333tuosShUODTJOSpGSrqSLIANNodXQxiEw/yj3FD4ySef9DYXvuKKK7yNhnfeeefoM6Qo9957b1StWhU33HADGjVqhOeeew7jxo3DF1984WWuKa9wXpHziyXJysP5TM5rcn6Tw+PpqFs3OVlJhPaQCB2Gm6Hvtpv5kMynxFLWU0GM/AsbAQZ7FCLs/T700ENeg8leRj7DZR1M9s01ghwe5DpBDhVy7R+TeYefNYXPRp8RnGz4maHm+eef97LVMNClPG8dVZqsPAx+ShKJ0B4SocNwnZH5PUWlLGHPJ/yBM+VWIcK5Ng6VMen1f//73+Bo+YWRsLNnz8bQoUPRuXNn3HfffbjkkktQpUoVbL/99tH3ISy8QCi0VHqpWXm4RCb1fHC5TJJIhPaQCHOMuYBG166cXwI++MDfNDcdN964QYDt23MIJ/iPMoDRkOGP+4UXXgiOFhY/mhaHeTfD8yD43dzQ6IflRS6UK0C4zrHouUgaidAe+kXnGE6ac97g4os3TKQz1yBHUa68EnjwwQ0CZCnrXYtSf9gMOihEvvzySxxyyCEbnYtCgz29dHOF7CGG54Tzx4UI52bDc8B52PDvpJEI7VF4v2gHYa7iWbP87ZM6dtwgwcMOA7bZxp8nPP54P58oN3bv3h0YORLgkrWk5g057xP+oFm+/fbb4H8Ki7ffftuLHmQqMEbLFiKpyQHiSqHuLnL77bdH5yDsDYf1pJEI7SER5gFsf2fMADgtxWHSu+4C/vUvoHJlYOut/cX1pp3GddcBDBrs0cNfdM99WEuyhIzRhuGPmaU8Rw1uCs6NbW1OMANIyvui9U3BiMjU70PR8jOjugqQQw89NDoHb731VnBUIsxHJMI8h0v4uE0cf4cDBgBt2gB33AGcdx5wyCH+PmcM8Dz5ZD+/YcOGQM+e8YJctGhR9EPOxY/ZVRhFyWhJBoiUZUYS12D2oNTvB9cxFhpFMyoV3dA4PJ40EqE9JMJyDkX59df+esR+/YBWrYA6ddKvR0yd62DhsKDtbCmuw0aOywgoQUZKig1wJ43wu8F1hoUII4dTfyPpesPh/yWNRGgPiVBEpP7A4wpzYDIfJnNjMniGW/CUF7hmjAvOmX1kyJAhwVFBuK1U+B1ghGQhUjSjUlyS7/D/k0YitIdEKCJSI964Jqxly5bFzrax7777ombNmujduzfeffdd/MQNE/MACp0pyJjDM3W+p5BZsmSJt5tIavq2z8s6v18ZweTm4TngOtJNEd4uaSRCe0iEIiJVhCzpIgF5FczlBMxTyWwbzDaSep9M5aCDDvIW5Pfv39/LauJCoMXYsWO918a8oeztlOck1cWh6GfHneoLEe7yEZ6DbDacDm+bNBKhPSRCERGKsHXr1t6//+RCx2LCBM5M5My99Jhtg8sOwoYhm8LtjJjFhjuecy8+Zu5ImnSvo3Hjxl5vqFAbf5J6PspzGrVN0bFjx+gccIQkG8LbJ41EaA+JUESEIuSO4uGPecqUKcH/2iHcWohzTtypnXktw+fKphx55JFeMAvvb2svPg7fpnuudIXDxGeffbbXKE6dOrVcLqvgSED4fpljtFDh3o/heeD3LVvC+ySNRGgPiVBEpIowdS1hLrdZYg+QPUH2COvUqYPDDjsseh3ZFO7Vx54otybiQvCSbDHE4V/KmlsVMTCo6Ca5myoMtLngggu8hNzcqzDf1mAyEXf4XiiCQiV1dw7uVVgcwvsljURoD4lQRKSKkHTt2tWrn3HGGV7dBdhQM4yfc4zM6pGa/zObwh0EOLfJXeG5xVBc5N+moNy4vRHPz+WXX77RTg2ZCm8bbgabuqWVC3AnifD1tOGC1AIktTfMUpLlQ+F9k0YitIdEKCKKipCEP+rUwl4ae2uDBw/GN998E9zSDTjMyWhVRq0yenW//fZL+x7SldRhT84PMqNKSebG2Atlb5DzS8XdDDZcnsLeKOdac9Ubnzx5cvQaXnnlleBoYcGNjlM/i5IOe4f3TxqJ0B4SoYhIJ8LUeZJsC+f9OP/Hfe5cy8/J1/POO++UaNiTYfP/+te/vOUEFAez8JQk6wyjUsPNYLlnXbrniiv7778/br75Zm8XkKIZTUoKLxrCxy/UxNm8oEs9z6XJnRo+RtJIhPaQCEVEOhFyCK/oD5u9lK+//hovv/wy7r77blSuXDm6TTbl+OOPR/369b2wdJfWGfJ9ce0c1xFyR3curi+6x9ymCvfo424MzEhD0fEclaRHx55ISTeD5S4Zd9xxBwYMGBA7rJfay33wwQej+7rWu88VqUPUvNAoLeFjJY1EaA+JUERkK8JMsPFnb4XzeFwzyLWD4WNkU6pWrYpGjRph3LhxTiV0Zu+P54aRtI8//jiqV6/urT1M9x7SlV133RVXXXUVunXrVqr0dTwno0aNwsMPP4zjjjsu7XMVtzCatxBhUFZ4DtjTtkH4eEkjEdpDIhQRtkSYCQqFgRkc3mPjU5x5PJYzzzwTzZs3x6RJk7x5HVfgcBovALgov23btjjvvPPwt7/9Le17SFf23ntv3HDDDejZs2ep0texl82dM5gw/Igjjkj7XKmFc72FCNeKhufgqaeeCo6WnvAxk0YitIdEKCJyJcJMUChc+vDss8+iRo0a2HPPPaPXkKlsscUWOPfcc72oRw5xupQlhhGqvABgJptmzZp50bjp3kNcqVixIm699VZv3zsO55V0WHnx4sXeEpVCXSRPGBQVnlcGRtkkfNykkQjtIRGKCFdEmAk24Nz+h0OMHGrcxbQI4WvMVLi/INNkderUyYsuLcnyiaQIs/Jw2LNhw4Ze7tN07yGucH7wzjvvxMCBA51JX+ciqecsidyp4WMnjURoD4lQROSLCDNBuXGtIYNWGLyy3XbbRe8hU9lhhx2idX5cSO1SrynMysNoXAa5FDfilCnz6tat6+2swR6hS8PKuYCfZer5WLZsWfA/dgkfP2kkQntIhCKivIgwE1wQzyUUzP7CLDBcFhG+x2zKNddcg+7du3tSKsnyiaQIs/Jwzo/Cy2Z+MLVQrBTs8OHDvfdWngJoUjMlsZQk41C2hM+RNBKhPSRCEVEoIsxEuM6PycerVavmbdIbnoNMhQEv119/vbdxLTPX5GpBfDYwKw+HTLm0gkOohx56aNr3EFc4VMshWw7dcgg3SZnYhAFMqe8j6c8kfJ6kkQjtIRGKCIkwnv/+97/eOWASaq7zmzhxIpo2bYrTTz89Oj/ZFK5Tu+WWW9CnTx9rC+JtweAbBuHwtTEo54ADDkj7HuIKg38YBMRgIG7V5cL86/Tp06PXx/WruSB8vqSRCO0hEYoIiTCeVBFmgsNw3K+xJAEvBx98sJdD9aWXXnJugTuXc3BZB5d3cJkHe7/p3kO6khrNy2QBCxcuLFX2lmxIzZjD73auCJ8zaSRCe0iEIkIijKc4IswE9zjk7hgPPfRQsQNeUvO8lnSdYRJwuJEJArhkhfOnTM3HBALp3kO6khrNy/R1XOJRmvlXzpGGj923b9/gaG4InzdpJEJ7SIQiQiKMx6YIM/HDDz94C+Lvv/9+VKlSJTr/2RTmeeV+jYwsTSoqsiSEWXm4h2MYzcuUdOneQ7rCVHdMeccdPzjcyd5y3Fwf96wM7zdjxozgaO4InztpJEJ7SIQiQiKMJ5cizAR7XmGeV+7oH34+2RTOkzE1G/O8cgjXFcKsPMwWxKTmTG6+5ZZbpn0P6Uq4a0fqsdTvcS4Jnz9pJEJ7SIQiQiKMxyURZoKfX79+/UqU5/WUU06J8ry6tPt+mJWHr6tFixYbZYZJV9hrLCvC15A0EqE9JEIRIRHGk08izAT3WWQgSUnzvDIylD03l5ZPMLgofI3sJZcl4etIGonQHhKhiJAI4ylPIswE1wiGeV732muv6PPPVJhgPDXPa66y8nC7q9TXIRGK4iIRigiJMJ5CEuGmYIAK87xyt4aS5nnlzv3cwd9GVh4+Rvj4jMTlvxKhKC4SoYiQCOORCLODYkrN81qcyNAdd9xxozyv2WSACR+f6fLCXeYlQlFcJEIRIRHGIxHagdGhzPPKyFDmea1QoUL0/cpUdttttyjP69y5c73oVx6vXLmy99gSoSgpEqGIkAjjkQhzA6NDmee1VatWWed5ZfAPkQhFSZEIRYREGI9E6AZMiM48rw888ED0vQyDciRCUVIkQhEhEcYjEboFhcjPgwvvQyRCUVIkQhEhEcYjEbqFRCgR2kQiFBESYTwSoVtIhBKhTSRCESERxiMRuoVEKBHaRCIUERJhPBKhW0iEEqFNJEIRIRHGIxG6hUQoEdpEIhQREmE8EqFbSIQSoU0kQhEhEcYjEbqFRCgR2kQiFBESYTwSoVtIhBKhTSRCESERxiMRuoVEKBHaRCIUERJhPBKhW0iEEqFNJEIRIRHGIxG6hUQoEdpEIhQREmE8EqFbSIQSoU0kQhEhEcYjEbqFRCgR2kQiFBESYTwSoVtIhBKhTSRCESERxiMRuoVEKBHaRCIUERJhPBKhW0iEEqFNJEIRIRHGIxG6hUQoEdpEIhQREmE8EqFbSIQSoU0kQhEhEcYjEbqFRCgR2kQiFBESYTwSoVtIhBKhTSRCESERxiMRuoVEKBHaRCIUERJhPBKhW0iEEqFNJEIRIRHGIxG6hUQoEdpEIhQREmE8EqFbSIQSoU0kQhEhEcYjEbqFRCgR2kQiFBESYTwSoVtIhBKhTSRCESERxiMRuoVEKBHaRCIUERJhPBKhW0iEEqFNJEIRIRHGIxG6hUQoEdpEIhQREmE8EqFbSIQSoU0kQhEhEcYjEbqFRCgR2kQiFBESYTwSoVtIhBKhTSRCESERxiMRuoVEKBHaRCIUERJhPBKhW0iEEqFNJEIRIRHGIxG6hUQoEdpEIhQREmE8EqFbSIQSoU0kQhEhEcYjEbqFRCgR2kQiFBESYTwSoVtIhBKhTSRCESERxiMRuoVEKBHaRCIUERJhPBKhW0iEEqFNJEIRIRHGIxG6hUQoEdpEIhQREmE8EqFbSIQSoU0kQhEhEcYjEbpFPopwrZHW2H5Ap3ZA+45A5y7m99UV6PIE0KED0NEca9/e/H8nU8zxkXOA1cF90yER2kMiFBESYTwSoVvkmwiXjQMuvs7I7TNgXXBsU6z/BZjSF7itBjB0UXCwCBKhPSRCESERxiMRukXeiXCsEeH1wISvggPZsBLofjVQf3JQL4JEaA+JUERIhPFIhG6Rl0Oj3wOvPAU0bwG0bAW0aQt07g706c/vFzDA9ACf7gJ0aA+0bW1u0w4Y/rHpHQb3L4pEaA+JUERIhPFIhG5RXoJlVi03r9v0EhcsBBZ9bXqOq4L/yAKJ0B4SoYiQCOORCN2ivIiwNEiE9pAIRYREGI9E6BZ5OTRqpKWoUTeRCEWERBiPROgWeRcso6hRp5EIRYREGI9E6BZ5J0JFjTqNRCgiJMJ4JEK3yMuhUUWNOotEKCIkwngkQrcoL8Eyihp1A4lQREiE8UiEblFeRFgaJEJ7SIQiQiKMRyJ0i7wU4a/A9FeAx1sBzZoBTRsDDVsAL4wEvl8b3MaweBbw6mCgz9NAzerAmN+D/yiCRGgPiVBESITxSIRukW8iXDcPuKEa8MQoI72UNRHrjRzf6QtcbIQ3amlwMGQNUO9w4Nnvg3oRJEJ7SIQiQiKMRyJ0i3wT4Yr+wIHXGHEF9aL8NAm45GJg/LfBAWJ6iU2ON7/BxUG9CBKhPSRCESERxiMRukXeDY2aXuCwZkDteqZX2NP0/oz4Zr0PzE8R2a+fAq3vBx5oBHR7ERg+ArjjaKCd6U2mQyK0h0QoIiTCeCRCt8jnYJnVK4CvvgQ++QRYvCw4mMo6YOkXwMzpwORp5u81wfEiSIT2kAhFhEQYj0ToFvksQltIhPaQCEWERBiPROgWEqFEaBOJUERIhPFIhG6RbyJctxr4ZQWwwpRfftlQVq7cUH79dUNZtQpYvSY+qwyRCO0hEYoIiTAeidAt8k2EKz8DOt8DnGhebssO/m4TTKXG3SZY2rXzS9u2fmnVDKh7C1CzHtDrzeBBiiAR2kMiFBESYTwSoVvk69DoL/OA+cVIo7YpJEJ7SIQiQiKMRyJ0C80RSoQ2kQhFhEQYj0ToFhKhRGgTiVBESITxSIRuIRFKhDaRCEWERBiPROgWEqFEaBOJUERIhPFIhG4hEUqENpEIRYREGI9E6BYSoURoE4lQREiE8UiEbiERSoQ2kQhFhEQYj0ToFhKhRGgTiVBESITxSIRuIRFKhDYp09ZtxAjgzjv9lEIDBgBvvQUsWQL8+WdwA5FTJMJ4JEK3kAglQpuUaev25ZfA008DjzwCXHstcOKJwB57AFtvDVSuDPMl55cKuO8+YOBAYMYM4NvUHZyFVSTCeCRCt5AIJUKbONm6MfP63LnAyJG+CFmuuQY44QRgt92AbbaB+bIDF1wA3H23n8D25ZeBd94BvvsueBBRbCTCeCRCt5AIJUKbON+68fvUsmVQCeA2JR9/DLz+OtCtG/Dww8BVVwHHHQfsuqsvysMOAy68EKhTB+jYERg0CJg5E/j+++BBxF+QCOORCN1CIpQIbeJ067ZsmS9C0z4XC+7t9dFH/hzkU08BDz4IXHklcOyx/pdn222Bf/4TqF4duPdeoFMnYPBgYNYs4IcfggcpQCTCeCRCt5AIJUKbON26ffqpL8IbbggOWIIbYn74ITB8ONC1qy/aK64AjjkG2HlnYPvtgSOOAC6+GKhbF3j8cWDIEOC994CffgoepBwiEcYjEbqFRCgR2sTp1m3yZF+E1aoFB3IEd5GeMwd49VWKAHjgAeDyy4GjjwZ23BHYYQegShXgkkv8QJ7OnYGhQ4HZs/1ebL4iEcYjEbqFRCgR2sTp1o3Dlfw+UTousXw58P77wLBhQJcuQL16wKWXAkce6UuSsuTfPMb/4214W96HknUViTAeidAtJEKJ0CZOt24MhOH3aY89ggN5AnuF7B2yl8jeInuN7D1S6Bx2pSjZu2Qvk71N9jrZ+2Qv9OefgwcpAyTCeCRCt5AIJUKbON26NW3qizAH36mcwnlGzjdy3pHzj5yH5Hwk5yW3286fp+R8JectOX/JeUzOZ3Jek/ObSSERxiMRuoVEKBHaxOnWjWsE+X3KwXfKKRi5yghWDg0zopWRrYxwZaQrI175A2AELCNhGRHLyFhGyDJSlhGzJUUijEcidAuJUCK0idOtG3tE/D6xrFsXHBTeWkiuieTaSK6R5FpJrpnk2kmuoeRaSq6p5NpKrrHkEDPXXHLtJddgxiERxiMRuoVEKBHaxOnWjd+lsDBARWQHs+swyw6z7bRv7/esmYWH7QPT1zE7D7P0MFtP/fpA9+5+Fp+bb5YI48hWhDVr1ozOF0vVqlXRuHFjvPbaa/jwww9Nj70UXXYRIRFKhDZxunX74w9g//39Rl3Yg/lambeV+VvbtQPuusvP67rzzr4Id931f17eV+Z/PeecDSLkuk7T/hQk2YiwvbnqCM9VNmXzzTdHtWrV0Lp1a4wYMQIfffSRRJklEqFEaBPnL/MZackgEZE84dDou+/+z9sJhDuCVK++QYSHHgpUqADsuSdw0knAddcBjz4KPPMMMGYM8Nln5VeU2YgwPE+2yjbbbGPOf3V06tRJoiyCRCgR2iQvRPjBB0FFJEo2c4TcIsu0N5g+HXjpJaBNG+COO4BzzwUOPtgX5V57ASefDFx/PdCwIfDss8AbbwDz5gGrV3sPk3cUR4QPPPAA1q9f753HqVOnom/fvrjnnnuw7777RrexUXYxLeFVV13lfUaFJkqJUCK0iUQoImwEy1CUX38NTJsG9O8PtGoF1K7tZweqVAnYaitg772BqlX91HmNGgHPPQeMHQt8/jmwZk3wQI5RHBH+kEXC2lRR9u7dG7fddht23XXX6DFslH322QcnnHACDjjgAHNeHT2xJUQilAht4rwImaFFIswNuYgaNe2/eXwYAcD0lPydRWrV4lwkcNBBvijpmlNPBW68EWjcGOjZExg/3t+/kvPGZYFtEWYiVZTPmi51jRo1oscvaVnF/c3KCRKhRGiTvBAhM66I5HFh+QSXySxa5OeZffFFoEULmN4ScPbZMD0bX5T77gucdhpw001AkyZAr17AhAnA/PnA2rXBA1km1yIsSvjYpSkdudamnCARSoQ2kQhFhAsizARF+dVXwKRJQJ8+QPPmwK23AmeeCVSs6Ityv/2A00/nchA/O1Hv3sCbbwILFpRclGUpwt9++y167NKW8oJEKBHaxPlfxlFHSYS5Ih9EmAmKbuFCYOJE4IUXfBFSiGec4S/FoSj5L8V5yy1As2b+7Xh73i8ucUNJRBjWw3LBBRdg+PDhpse7yDxP9hkili5dGj3GSy+9hHnz5mF1EHUUHm9iusannnpqVI8r5QWJUCK0SV6IkLs2iOQpDyLMBEXJniF7iBxSfewxLoL3e5DsSVKUHII96yy/p8keJ3uezZr5Itxnn5KLsGhZSPNmwfz589PeP7XEMWvWrOg2jDAtL0iEEqFNJEIRUQgizASDcRiUw+Cc55/35yA5F1m5si/C//f//oEDD/TnLDl3yTlMBv1MmfJXEVauXBnnn39+dLxoYSBMNnxpXlC6+6eWONj7DG8jEeaG8HwnjURoD+dbN25XJBHmBokwnnBolD3CL74Axo3zo1kZ1croVi4HCc9TxYo/eFGwO+9cBZUqbRDhIYccbsqh3t+bbbZZ8MiZYWq28DHSla2ZNy8GiTD3hOc7aSRCe+SFCLm3n0geiTCe4swRzpjxg7cu8h//qGJ6j0V7hJsH/26G228HWrf211ty3SXXX3IdZlFmzJgR3f/JJ58MjgJ///vfvWMHcd1JDBJh7gnPd9JIhPaQCEWERBhPSYNldthhh+j4xmUzLzVdgwZAjRp+Jh5m5GFmnkMOAc47z8/Yw8w9jRpNiO7XokULTJw4EQsWLIiOHX/88Z4YKLr33ntvo0AciTD3hOc7aSRCezjfunGDWokwN0iE8diIGi1ahg4d6t0uld9+g5fcfPRooEcPP5drpUp3p71/WM4666y/HPv555+9x5MIc094vpNGIrRHXoiQu7mL5JEI4ymJCL/77jvcd9990fGiZQKzAGTB4MGD094/LEcddVTa42PHjpUIy4DwfCeNRGgPiVBESITxlESEtuBehnzcP4rkl3v33Xe945dccglq1aoVPT9LlSpVsHz5comwDAjPd9JIhPZwvnU79liJMFdIhPG4KMIwmpQiJNyB4tprr8V4rv0IkAhzT3i+k0YitEdeiNBc+IocIBHGUxwRLlmyJDhih2xFmA6JMPeE5ztpJEJ7SIQiQiKMpzgitH2uJMK/IhFKhDZxvnU77jiJMFdIhPFkI8LTTz89OlepZfvtt8f111/vbafEPKHFpU+fPt7jSIQbkAglQpvkhQhnzQoqIlEkwniyESH3EAzPVXFKJlGOGjXKu13Dhg299YPhOkGJUCKUCO0gEYoIiTCebERYFG6f9Mknn3gi69SpE44++ujoXBan7LjjjhvVmVGmUqVK2GOPPTY6zlKxYkUvgnTAgAHerhWpImQpL0iEEqFNnP9lHH+8RJgrJMJ4SiLCTNgSZXFKeUEilAhtkhcinDkzqIhEkQjjSUKEmbAtyrlz5waPnP9IhBKhTSRCESERxlMWIsxEcURZu3bt4F7lA4lQIrSJ863bCSdIhLlCIozHRRFmgqL87LPPvCCe8oZEKBHaJC9E+M47QUUkikQYTz6KsDwjEUqENpEIRYREGI9E6BYSoURoE+dbtxNPlAhzhUQYj0ToFhKhRGiTvBDhjBlBRSSKRBiPROgWEqFEaBOJUERIhPFIhG4hEUqENnG+dTvpJIkwV0iE8UiEbiERSoQ2yQsRvv12UBGJIhHGIxG6hUQoEdpEIhQREmE8EqFbSIQSoU2cb91OPlkizBUSYTwSoVtIhBKhTfJChG+9FVREokiE8UiEbiERSoQ2kQhFhEQYj0ToFhKhRGgT51u3U06RCHOFRBiPROgWEqFEaJO8EOH06UFFJIpEGI9E6BYSoURoE4lQREiE8UiEbiERSoQ2cb51q1pVIswVEmE8EqFbSIQSoU3yQoTTpgUVkSgSYTwSoVtIhBKhTSRCESERxiMRuoVEKBHaxPnW7dRTJcJcIRHGIxG6hUQoEdokL0Q4dWpQEYkiEcYjEbqFRCgR2kQiFBESYTwSoVtIhBKhTZxv3U47TSLMFRJhPBKhW0iEEqFN8kKEU6YEFZEoEmE8EqFbSIQSoU0kQhEhEcYjEbqFRCgR2sT51u300yXCXCERxiMRuoVEKBHaJC9EOHlyUBGJIhHGIxG6hUQoEdpEIhQREmE8EqFbSIQSoU2cb93OOEMizBUSYTwSoVtIhBKhTfJChJMmBRWRKBJhPBKhW0iEEqFNJEIRIRHGIxG6hUQoEdrE+dbtzDMlwlwhEcYjEbpFoYvQfB3NcwCdOwcHRKnICxFOnBhURKJIhPFIhG5R6CLkw4dFlB7nT6NEmDskwngkQrcodBEedJAvwQoVggOiVDjfup11lkSYKyTCeCRCtyh0EXIzAj7F/vsHB0SpyAsRvvlmUBGJIhHGIxG6RaGL8JprfBGecEJwQJQKiVBESITxSIRuUegirFfPF2H16sEBUSqcb93OPlsizBUSYTwSoVsUugjbt/dFWKtWcECUirwQ4YQJQUUkikQYj0ToFoUuwr59fRE2aBAcEKVCIhQREmE8EqFbFLoIx43zRRiuIxw0CFi40P9bFB/nW7dzzpEIc4VEGI9E6BaFLsK5c30R9u8PNG0KHHww33/wn6LY5IUIx48PKiJRJMJ4JEK3KHQRLl/ui5Bfx5NOAr7/PvgPUSIkQhEhEcYjEbpFoYvw5599Ee69N7BqVXBQlBjnW7dq1STCXCERxiMRukUhi5BDoEcd5Ytw7drgoCgVeSFCTgyL5JEI45EI3aJQRfjRR342mY4dgwPCChKhiJAI45EI3aIQRcj11HvsAQwcGBwQ1nC+dTv3XIkwV0iE8UiEblFoImR06J57aku6pMgLEY4dG1REokiE8UiEblFIImzTBqhY0V8yIZJBIhQREmE8EqFbFIII160D7roLOOYYYMmS4KBIBOdbt/POkwhzhUQYj0ToFuVdhL/+Clx8MXDBBcDKlcFBkRh5IcI33ggqIlEkwngkQrcozyL87jvg+OOB2rW1PCJXSIQiQiKMRyJ0i/Iqws8+83efb9EiOCBygvOt2/nnS4S5QiKMRyJ0i/IowmnT/MjQF14IDoickRciHDMmqIhEkQjjkQjdoryJcPBgf42g4iHKBolQREiE8UiEblGeRMitlPbdF5gzJzggco5EKCIkwngkQrcoDyJcvx544AHgiCOAxYuDg6JMcL514/dcIswNEmE8EqFb5LsIzcvHVVf5G4+vWBEcFGVGXohw9OigIhJFIoxHInSLfBbhjz8CVasCN94IrFkTHBRlikQoIiTCeCRCt8hXEc6fDxx6KNCwIfDnn8FBUeY437oxs4JEmBskwngkQrfIRxHOnAnssw/wzDPBAeEMeSHCUaOCikgUiTAeidAt8k2EI0b4yyP4r3APiVBESITxSIRukU8i7NHD7wnOmhUcEM7hfOt24YUSYa6QCOORCN0iX0TYrJk/J8i5QeEueSHCkSODikgUiTAeidAt8kWE5ufjRYkKt5EIRUQmEZ588slo0KABRowYgS+++AJ//PFHcKvyj0ToFvkgwl+5l5LIC5wX4UUXSYS5Ip0ImzZtGv2wM5VTTz0VjRs3xtixY7Fw4UKs486i5QSJ0C1cFeGnn34a/R5uuOGG4KhwnbwQ4euvBxWRKOlEGP6obZQzzjjDE+v48eO951jPHFN5gkToFi6K8HXTUIXfdZZ0PcLZs4FOnYAhQ4B339WwqStIhCIinQg5DMpjxx13HKpXr45tt912ox+7zXLWWWehRYsWmDRpEpYuXRq8AjeQCN3CNRG2adMm+h6HJR3vv8/fGXDFFcDRRwM77QRsvz1QpQpwySXA/ff7SbiHDvVvq/RrucF5EZq2VyLMEZsS4cCBA4MjG1i7dq03BPrmm2+iXbt2XqO05ZZbbtQY2CpbbLEFqlWrhlatWmHq1Kn4/vvvg1eRGyRCt3BJhBdeeGH0PeVFXPh3tlB2lN6wYUCXLr4ML70UOPJIX5I77uhL8/LL/STdDMAZPtzfv/CXX4IHEaUiL0SoRai5obgizASDaebPn+8NhVJg55xzDjbbbLOoobBZKODzzz8fbdu2xVtvvYVly5YFr8IOEqFbuCLC1O8zLwpJWLfFTz8B773nD6c+/jhQty5w8cV8Hr/ssgtw7LHAlVcCDz0EPPWU32Z+/DHw22/Bg4hNIhGKCNsizMSaNWu86NM33njDmzs8/fTTvedKomy99da44IIL0KFDB7zzzjvmSrp4l9ISoVuUtQj//PPP6LvFsnLlyuB/7IswHatW+RKcPBn44Qc/fdugQUDHjsA99/jR9ocd5if2FplxXoS88pEIc0OuRZiJ1atXY968eRg1ahQaNWqEU045JWpkbBfOfXIO9HFzyf3uu++ahsa0NClIhG5RliJkEEz4vWHhFEEq4fEkMdeP5jl8+YnSkxcifO21oCISJfXHvf3226NWrVq49tpro2MjR47c6Mq3rPntt9+8cPXXzBekfv36OOGEEzZ6D0mVKVOm4Ntvvw1ehSgLykqEvEhM/S6kY1P/ZwvzFTTPAXTrFhwQpUIiFBF77bVX9CMubuGaqXHjxv2lJ1WW8Mr9448/xrBhw7ze7jHHHJP2tdsoPHfXX389nn32Wa9H+aPi4hOlLEQ4ffr06PPmfHcc4W2S5L//9UX42GPBAVEqnBchQ4olwtwQDo2y3Hfffd783auvvoqaNWvikEMOif6vJOW2227zelJswFyB84QffvghBg8e7L3fI444Iu1rt1H+/ve/4+abb0bv3r0xZ84c/Pzzz8GrECUh1yLs2bNn9Fk2YwLRTRDeLkm4xIJPcdddwQFRKvJChAwVFsmTKkIWNixxhPN3DHTh0on9999/o/sWp2y11Va45557MGPGDO9xXWHFihWetDg/ePfdd3sNbLrXb6McdNBB3lB0v3798NFHHyk9VwZyKcI77rgj+px4YZiJ8LZJUr++L0KuRxSlRyIUEaEImSKttD9mNlSfffYZRo8e7S2S32233aLHLG7ZYYcdUK9ePbz33ntepKkrcInG7Nmz0b9/f9x+++2oVKlS2tdvo1SuXNlc/d/lSZnzoi71rMuCXImQFyjhZzB37tzg6KYJb58kjAblU1StGhwQpcJ5EXJhqUSYG1KjRq+66irv78cSmoRgoMsnn3ziRYQyP+l2220XNSDFLbvvvjseeeQRb5izaARfWcJ5Qs4XvvDCC7jllltQsWLFtK/fRuGwbt26dfHKK68UREL0XIgw9fz+xMV8WRLeJ0k4RcmnOPjg4IAoFXkhwixGI4QFUkVIwh/0d99959VzSRjowvyNlNzf/va36PUUt+y7776e0NmTcikROLPjcE0j559uNJf4XJqR7vXbKAwU4ufLCNvykBA9SRHyIiL13BV3FCK8X5LwLfIpmHlGlB6JUEQUFeEHH3wQ/ahdWy4QBrqwYeewafg6S1I4pMnMN+xJuZQInOf87bffRo8ePXDddddhjz32SPv6bZQTTzwRjz76KMaMGeN9/q4nRE9KhOzFp54XLpwvLuF9k4QPHxZRepw/jZddJhHmiqIiJOGPOl1hIu6HHnrI67X9wPQWDsGoTIqcwQ0MdEn3+rMthx9+ODp16oSvvvqqRA1jEvB1sOFnSP9TTz2FK6+8Ervsskva12+jcIutJk2aYMKECU4kRE9ChAxSCt8vo6RLSvgYSWKuW8xzwFzEBQdEqcgLETIZrUiedCJkppXwh13cYJCTTjrJ62UwYKY4cyy5YPny5Xj//fcxdOhQL1oz3evPtnDY8cknn8TXX3/tjCjZo+PnyATlXbp0waWXXuolSUj3+m2UcOeQyZMn5+SiyLYI+T0I3wsvnEpD+DhJwxyjWq5qB4lQRKQTYeoO9UXhPNOXX35Z4mCQcCNfLsS3nSS7tPD1MEqVawyZLCDd68+2cGd/LrR3aWspfnaLFi3ydkvo2LGjt4MC87Gme/2lLVxDmZoQnctSSotNEXL+OHytXOdZWsLHShqJ0B52P61VQN9WwPtFA/dWAqN7APUfBpq2BNq1B9q3A9q0Bpo1B/pM8u6aFm49IhHmhuKKMBOM4Pz888/x/PPPlygYhBv5cvHyxIkTnVuAHkaEcjlDGGFb0nLmmWeiT58+Od9aalOEW2xxKJQCO++88zyhpXv9pS3bbLMNLrroIm/4eebMmVml8bMlQp778HVwPtYG4eMljURoD7uf1jojuTOBzv5uJD5rgBbnAI+OipHd78DrDwLnGzmmC3ynCLlJpUge2yLMBKPzGMn5zDPPoEaNGthzzz2j58pUNt98cy/NVcuWLb3hv+LuJpE0lBob9ZdeegkXX3xx2veQbWFvasCAAZ58XSHcYou9eQ6Jnn322Wlfu42y44474rLLLvO+ixzO5tIbGyJMfQ4Oa9sifMykkQjtYf3TeusR4LbUHtxq4J7jTE9xE9+zFa8AR9/uOfEvSIS5I9cizATD1hnA0K1bN1x99dXFWpSfOhzHK33XMrVwSQoz6bAneO6556Z9D9kWipZzXJz3dAV+dhwNYBQqhx6T2mJrv/32C54xexFy/jT1MShWm4SPmzQSoT3sflrmonxQXeDkmv4uyl06+znxWt4JHHIoUPtJ4KcgKnv5ImDGOODZtsDt5v9HfOUfLwpTCEmEucE1EWaC6diYAq1r167mguly7LTTTtFrzVQqVKjgzYtxfow9N5eShTPghvOJFHivXr1KLRFeRHDnEJd6zezRMfMQX1fDhg29edR0rz1T4chASDYi5LBr6v2TWCYSPnbSSIT2yF3rZtqZb1I+tJXfm/q35nCGdb0U4SumxyiSJ99EmAle6TPg5YknnvB6TcXJXsPbXnLJJd59+RhsuF0hdekEh5VLu/0U52/Hjx/v3BZbzDw0fPhwPPzww95SnXSvnSUkkwg55xneZ8sttwyO2qfo60oKidAezrduEmHuKG8izAR7gewNhlGT7CWG7zVTYe/zCvPlZG+UvVKXkoWzl8M5L86dco1hlSpV0r6HbAuXl3DnEJd6zRxS5mtjSrmQTYmQAVfh++EFTpKEz5M0EqE9nG/drrxSIswVhSbCTLCHxHB/zjOG5yDbwvlMDkl2797dSxXnUrJwinLx4sWe3NjjLc0WW7x4CHcOyWWvmcta+PzZiJAXA+Hrbd++fXA0OcLnShqJ0B52P631wO/mopFxCVkVc9vfzYX02k0M01OEQ4YEFZEoEmE8XCbBc8AlICFc0sFeFyNXGcG62WabRecqU2GELNOmcWiTkbMuJcnmGkNm0eEaQ4qDuVrTvYdsCiM+mQKPS01s9pqzFWHqGlAmdsgF4fMljURoD7uf1i/A8I7A2ccDdzeHuZLedGnTCmhQF7juRqBlL2BBmpEXiTB3SITxpBNhJhjFySE5roXkmsjwPGZT+Dycu+MaTEZfurSrRrjG8M033/QuArj7R7r3kE1h/lRmH2Le2OJcDGQjwtTcrDyHuSJ8zqSRCO2RyKe1fjkw58ugUkquukoizBUSYTwlEWEmmHaO6/CYXadq1arRec6mMIsPs/lwrozZfVzaTSJcY8jF+Hxv2267bdr3kE3h8gguv2DgTOrFwKZEyL0bUx/DRiab4hA+b9JIhPZwvnWjCM13XuQAiTCeJESYCebs5HAee0zM2xp+DtkUbihbu3Ztb9Ng9t6SWCZQUjhfyp0+eBFQv359bLHFFmnfQzalc+fOUX7XUISppSx60uFzJ41EaA+JUERIhPGUhQgzwew13PmDO4BsanlBunLooYfizjvvxMCBA72coy6JknOJ8+bNwxtvvFGqLbbKilw9v0RoD2dat1WLYK4QzVVdkeC6q6+WCHOFRBiPiyLMBBflcxuqBx54AEcffXT0OWZTuPVUnTp1MGjQIKd21SDhYvy+ffvipptu8j6Toq+feUvLivA1JI1EaA9nWrc5zwHX1AAGfBEcCKAIzW9R5ACJMJ58FOGmCBflDxkyBHXr1sURRxwRfc7ZlCOPPBL333+/l9ptyZIlZS7K1B5x3IL6XBG+jqSRCO3hfOsmEeYOiTCe8ibCTFBs/B68/PLL3v58lEv4PcimcI/GBx98EK+99pq3036SpK4TZJEIRXFxvnW75hqJMFdIhPEUmggzwTlFrjXkrhh33HEHDj744Oh7kk1hWjgGyjDXaGm2n2KygvAxmSSA/0qEorjkhQjNRanIARJhPBJh8eByDi6h4DzebbfdhgMPPDD6HmVTTjnlFC8ZNwNm4na8Z1BNeHtGxqZbUF8WhK8paSRCeyTyaS1+B+jdBWjeDGjWFGjQGHiyHzD3p+AGhjWLgdGvAgP6AE1qAo3GBv9RBIkwd0iE8UiEduGyBi5y547wNWvW9NYLht+zbMqpp54a/c09H4lEKEqK3U9rHdDHSO2GjsCcpV7GNR9zfOF04P7qQOMxKccDptQDLno2qBTh2mslwlwhEcYjEeYWLspnZGjPnj29NGl777139D0sWkIkQlFS7H5ay4GrDgQGpvT8UllvPrTHjAwfm7CxDGc3Ac79z18FSShC0waJHCARxiMRugXzvPLzOOuss4IjEqEoOdY/rXlDgNq1gGZdgKHjgJlzgE++AqL8DiuBIa2Aex4A2nQDBg8HXrgDOL2d13H8CxJh7pAI45EI3YJrCfl5/Otf/wqOSISi5CT2aa1bBSz+EvjoQ+DjhSkiTGHlUuCDmcCUyeY25u90XHedRJgrJMJ4JEK3kAglQpuUSeu2bDGwIsuMThThwIFBRSSKRBiPROgWEqFEaJPct26/AHccBQzKcrNriTB3SITxSIRuIRFKhDax+mmtXwJ0rgNUrQxUORu4v2n6fQhrnwycdQ/QujXQpg3QpKFpcAcBS9OMn9aoIRHmCokwHonQLSRCidAmyXxa64D5U4GnWgGNGwMtuwKTvtgQDDP1IdMrfD2oZIAiHDAgqIhEkQjjkQjdQiKUCG2Sk9Zt1TfAa88CTY0UG5teYvNrgQu7p48SLYpEmDskwngkQreQCCVCm+S+dVsDTOkHvDLb+zMj118vEeYKiTAeidAtJEKJ0CbWP61fFwFLsjFcllCEQQYlkTASYTwSoVtIhBKhTax+Wswc8+CxQNVaQNPWwMBJwLJ0CwiLgUSYOyTCeCRCt5AIJUKbWP+0htcGGr1j/jC9wo/HA13b+dGhbTsCfYcDcxYAq7JcQ0huuEEizBUSYTwSoVtIhBKhTax/WqPvBh59K6ikshqYZwQ5pA/whJFipyeAxzsBLRsCd9cDeo3zlhj+BYqwf/+gIhJFIoxHInQLiVAitIn1T2vQ9cDtI4OKBSTC3CERxiMRuoVEKBHaxPqnteCj9D27knLjjRJhrpAI45EI3UIilAht4nzrRhH26xdURKJIhPFIhG4hEUqENpEIRYREGI9E6BYSoURoE7uf1nrzBV0F/PprlsXc9vfVwNpNRJHedJNEmCskwngkQreQCCVCm9j9tH4BhncEzj4euLv5X5NtFy1tWgEN6gLXmV5fy17AgjQ7UlCEffsGFZEoEmE8EqFbSIQSoU0S+bTWLwfmfBlUSolEmDskwngkQreQCCVCmzjfutWsKRHmCokwHonQLSRCidAmeSHCF18MKiJRJMJ4JEK3kAglQptIhCJCIoxHInQLiVAitInzrdvNN0uEuUIijEcidAuJUCK0SV6IsE+foCISRSKMRyJ0C4lQIrSJRCgiJMJ4JEK3kAglQps437rdcotEmCskwngkQreQCCVCm+SFCF94IaiIRJEI45EI3UIilAhtIhGKCIkwHonQLSRCidAmzrdut95afkX4+efA2LH+v2vWBAfLEIkwHonQLSRCidAmeSHC3r2DSjljwACgWjXgoIOArbYC9tkHOPVUf8eNxo2Bnj2B2rWBL78E/vgjuFOCSITxSIRuIRFKhDaRCB1h/Xpg8WJgyhR/3WSLFsBtt/FH5ReKct99gdNO85MMPPYY0KsXMGECsGABsHZt8EClQCKMRyJ0C4lQIrSJROgw69b5Ehw0yP/7q6+ASZP8KNpmzfz50zPPBCpW9EW5//7AGWf4x/n/HFKeONG/H++fCYkwHonQLSRCidAmzrdu7BUVqgiXLvVF2L17cGATsEfInuGbb/rniz1G9hxPPx3Ybz9flAccAJx1ln9xwR4ne56TJwOLFvk9UokwnmxF+MEHH0Tnq7f5IN566y0sWbIEf/75Z3ALYQOJUCK0SV6IkEOAhcicOb4ImzYNDpQCzjFyrnH8eOD554EmTfy5SM5Jsm2nKHfc0Rfhddf9Dy1b+hsi33+/REiyEeHHH38cnatNlYqmC3+L6ba/YLrsb7/9trngMVc8olhIhBKhTSRCh2FEKX9Pd94ZHEgQRq3eeqsvwg4d/odGjYAbbmAvcoMIDz4YOPdc4PbbgdatgZdeAqZPZwME0+MJHqicko0Iw/NU2iJRZkYilAht4rwIa9UqXBGyR8bf02WXBQcSJtPQ6Lx5wJgxwDPPAA0aADVqACedBOy5J1ChAnDoocD55/vibtvWj4o17bg3xJvvFEeEvO2wYcPMOWiLatWqRcdtlQMOOMBctNxa0KKUCCVCm+SFCDmUV4g88YQvwpNPDg4kTGnmCH/7Dfj0U2DUKODpp4FHHgGuvRY48URg992BrbcGKlcGLrgAuPtuoH17ygWYMQP47rvgQRymOCL84YcfgiN/Zfny5Xj//fcjUZ5zzjnR/WyVoqL87LPPgmcvP0iEEqFNJEKHoUz4ezrwwOBAwiQZLLNqFTB3LjByJNCtG/Dww8DVVwPHHw/sthuwzTbAYYcBF14I1KkDdOzoR8vOnAkjluBByhBbIsxEUqK8mie7HCERSoQ2cV6EXFBeqCJkdCd/T5RELijLqNGVK4GPPgJGjACeegp48EHgyiuBY4/1f/DbbQf8859A9erAvfcCjz8ODBkCvPtubhqDXIkwjvCxS1PGcFy7nCARSoQ2yQsRMsNKIXLRRb4Ic/Cb8nB5+cTPP3NpAjB8ONC1K18rcPnlwNFHAzvtBOywA1ClCnDJJcB99wGdOwNDhwKzZwPLlgUPUgrKUoR//PFH9NilLeUFiVAitInzv4xCFiF/S2HJZkF8aXFZhJlYsQJ4/31g2DCgSxegXj3g0kuBI4/0JbnjjsBRR/mBR/w/3ubVV/0lKpRsJkoiwpdffjk6dsghh+CLL77wjheX7777Lnqc77//HqtXr/bm/fr37x8dz7aUFyRCidAmzv8yGKpfqCLs0cOXIIdIc0E+izAT7BWyd/jKK34QEnuN7D0ecYQ/7Mpe5THHAFdc4fc22etk7/PDD/1h25KIMKynKw8//LC5uMnu6uarr776y/0PP/xwnHvuuVE9lV9//dVb0zhkyBDzfq6IbnPVVVcFt8h/JEKJ0CZ5IcLnngsqBQgTcnMhfC4ozyLMBBsUzjcOHgx06uTPQ3I+kvOS227L4ouwQoV/4KGH/HlMzmca3xjx+I8RnqdQhBUqVMB+++0XHS9aBg4c6N0uE1+aL0C6+6eWOBYtWhTdRiLMDeH5ThqJ0B4SoeNUqiQRusBzz/ki3GWXf6BDB+Cee/wIV0a6MpiJka/hebr33h+8tHgVK1ZB1arnR8f333//6G+WbJk7d+5G9ytaNt988+CWf0UizD3h+U4aidAezrdud9xR2CJkNpcSTi0VG4kwnkxDo99+u6EBbNLkB9x1F4dcqxhJbhBhhQqHm2OHBvXNMHq0v/bStOmbZObMmdFjNGzY0DvGecLw2L7cliQGiTD3hOc7aSRCe+SFCJ99NqgUIBQhN+7NBRJhPCWZI9xuu+1w8sknR8c3LpvhvPOAQw7xs/LstZefOIHZepi1h9/5N96Al81n7NhJ0f0mcN+tgPDYMZzcNKziYs0iSIS5JzzfRVlrpDW2H9CpHdC+I9C5i/l9dQW6PAFvlIFrZ5logkPznczxkXPMBU9w33RIhPaQCB2HDaVEWPbYDpZh+Tz4YJmn1bThmDYN6N/fz+PKKQFu2syh8S22aJz2/mE544wzNqofxfDYAIkw94TnO5Vl44CLrzNy+wzIJkRq/S/AlL7AbebCaOii4GARJEJ7ON+6MW9lIYuQ+TvZK8gFEmE8JRFhv379omPpSleGpmbBM888l/b+YalSpUra47Nnz5YIy4DwfKeybKwR4fXAhK+CA9mwEuh+NVB/clAvgkRoj7wQIZM8FyoUYa5SRUqE8ZREhEVZv369d27HjRuHX34xl/xZ8tprr3mPy4X1hEOgXKO4i2kJefziiy+Onju1cN2iRJh7wvNdlLXfA688BTRvAbRsBbRpC3TuDvTpz+8XMMD0AJ/uAnRoD7RtbW7TDhj+sfneBPcvikRoD4nQcZioWiIse2yIsKQUFWHIhx9+6B2/5JJLsGLFClSqVMmrp+YVlQhzT3i+s2HVcvO6TS9xwULzWX1teo5/neaNRSK0h/OtG6PvClmE/E0zsjAXSITxuC7COCTC3BOe76SRCO2RFyJkhpVChb/pTz4JKgkjEcZTHBFeyWzhFpEI/0peDo0aaSlq1E0kQsfhgm2JsOwpjgjDUrlyZTRr1gwTJ0701v2VlMGDB3uPJxFuIO+CZRQ16jTOt27cxLWQRXj44f4+frlAIownGxF+++230bnKpnCZQzai7GF+ALz9vCLhwxJhHolQUaNOkxci5I7nhQpzXTKfZS6QCOPJRoQhf/75p9coT506FY8++ij22GOP6BwWp3AxfosWLTB+/PgoEGavvfbyGv/atWt7Q7Cpt23QoAG45+DSpUu910BSRVixYkXvWHkgL4dGFTXqLBKh41CE3LA2F0iE8RRHhJngEOf8+fO9ZRT16tXDDjvsEJ3jpEt5obwEyyhq1A2c/2UwuXEhi5DbBEmEZY9NEWaC6wSZaHvEiBG46667sOWWW0afQWnKoEGDgmfIf8qLCEuDRGiPvBAhM/kXKtx1/cMPg0rCSITx5FKEmVi2bBnee+89L4jmlltuiT6fTKU8kZci/BWY/grweCugWTOgaWOgYQvghZHA92uD2xgWzwJeHQz0MR2AmtWBMTFJ2SVCe0iEjkMRfvBBUEkYiTAel0S4KTg3uGTJEkyfPt0LsjnggAO8OcbyRr6JcN084IZqwBOjjPRS4qLWGzm+0xe42Ahv1NLgYMgaoN7hwLPfB/UiSIT2cL51q1OnsEV45JESoQvkiwgLhXwT4Yr+wIHXGHEF9aL8NAm45GJg/LfBAWJ6iU2ON7/BxUG9CBKhPfJChN26BZUChBsJzJkTVBJGIoxHInSLvBsaNb3AYc2A2vVMr7Cn6f0Z8c16H5ifIrJfPwVa3w880Mi0eS8Cw0cAdxwNtItJui8R2kMidByK8H3zg8kFEmE8EqFb5HOwzOoVwFdf+okyFi8LDqayDlj6BTBzOjB5mvl7TXC8CBKhPZxv3e69t7BFeLS5IpQIyx6J0C3yWYS2kAjtkRcifOqpoFKAcPPx2bODSsJIhPFIhG4hEUqENpEIHYcifO+9oJIwEmE8EqFb5JsI160GflkBrDCFW1GGZeXKDeXXXzeUVauA1Wvis8oQidAezrdudesWtgiPPVYidAGJ0C3yTYQrPwM63wOcaF5uyw7+bhNMpcbdJljatfNL27Z+adXMtH23ADXrAb3eDB6kCBKhPfJChE8+GVQKkOOOA959N6gkjEQYj0ToFvk6NPrLPGB+MdKobQqJ0B4SoeMcfzwwa1ZQSRiJMB6J0C00RygR2sT51u2++yTCmTODSsJIhPFIhG4hEUqENskLEXbtGlQKkBNOkAhdQCJ0C4lQIrSJROg4J54IvPNOUEkYiTAeidAtJEKJ0CbOt2733y8RzpgRVBJGIoxHInQLiVAitEleiNC0xQXLSSdJhC4gEbqFRCgR2kQidJyTTwbefjuoJIxEGI9E6BYSoURoE+dbt3r1JMK33goqCSMRxiMRuoVEKBHaJC9E2KVLUClATjlFInQBidAtJEKJ0CYSoeNUrQpMnx5UEkYijEcidAuJUCK0ifOt2wMPSITTpgWVhJEI45EI3UIilAhtkhci7Nw5qBQgp54qEbqAROgWEqFEaBOJ0HFOOw2YOjWoJIxEGI9E6BYSoURoE+dbN9M2F7wIp0wJKgkjEcYjEbqFRCgR2iQvRPjEE0GlADn9dInQBSRCt5AIJUKbSISWWbMY6N8deK4P8PIw4LMVPAhMewFo1BBo0Rpoww04+W9bU5oDzZ4E5v3q378oZ5wBTJ4cVBJGIoxHInQLiVAitInzrduDD+aPCNcvBa4/Bxj/bXCArAdevBaoPQiI24/zw87AcfcBq4N6KmeeCUyaFFQSRiKMRyJ0C4lQIrRJXojw8ceDiuOsXwJcdyowcF5wgBgR9jUirNETYOfwLxg7vv4ocHkXYG1wKBWKcOLEoJIwEmE8EqFbSIQSoU0kQsusXgT0agnUbwg0bQa0aGVef0fgZiO0gw8Dql0G3HQbUOd+4CHz3h5sZHqMU9P3BslZZ0mELiARuoVEKBHaxPnW7aGH8kuERVm/Bvjpe2Cp6S1+vRhYYv7+fV3wn1lw9tnAm28GlYSRCOORCN1CIpQIbZIXIuzUKagUIBThhAlBJWEkwngkQreQCCVCm0iECbN+/YayzvQEw7J2bVDM3/y/OM45RyJ0AYnQLSRCidAmzrduDz+cRyJcAbzSFjjzOODOpkDLlpsuLZoB9esA195o6r2ABWnCSqtVA8aPDyoJIxHGIxG6hUQoEdokL0TYsWNQyRPWLwNmfxFUSglFOG5cUEkYiTAeidAtJEKJ0CYSoeOce65E6AISoVtIhBKhTZxv3erXL2wRnnceMHZsUEkYiTAeidAtJEKJ0CZ5IcIOHYJKAUIRvvFGUEkYiTAeidAtJEKJ0CYSoSOsWgSMG29+zGuCAwHnny8RuoBE6BYSoURoE+dbt0ceKQwRftATuKYGMKBIkA1/52PGBJWEkQjjkQjdQiKUCG2SFyJs3z6oFCD8nY8eHVQSRiKMRyJ0C4lQIrSJROg4F1wgEbqAROgWEqFEaBPnW7dHHy1sEV54ITBqVFBJGIkwHonQLSRCidAmeSHCdu2CSp7wzSzgxSeB5s2AZk2Bho8BT/8X+Gx5cAMDd6kYNQzo3wtocAPwWEwatYsuAkaODCoJIxHGIxG6hUQoEdpEIrTJOqDfLcB1bYCZi8GtCD3Wrwa+nALcdzHQdPyG4yET6wKXPB9UikARvv56UEkYiTAeidAtJEKJ0CbOt24NGuSRCE2P78oDTaO5LKgXYb350j5GGU7cWIazGgHnmR5kutzb1atLhC4gEbqFRCgR2iQvRNi2bVDJAz59GbjtNqC5EdtrRnjvfwx88XXK7vMrgUEtgHseANo/AwwbCfS5Azi9vdeh/AsXG3GOGBFUEkYijEcidAuJUCK0iUSYEGt/ARZ8akQ4G5jzJVBknbzHCiPI2W8DkycDHy8NDhaBInzttaCSMBJhPBKhW0iEEqFNnG/dGjbMTxFuihVGeqZjmBWXXCIRuoBE6BYSoURok7wQYZs2QaU8sAKofTQw9PegnoFLLwWGDw8qCSMRxiMRuoVEKBHaRCK0yPpvgMfvAU45DDjuQqB+S38NpFfa+UE/LLedCJxzL9CqNdDalMcaAU8OBr6NJhI3QBG++mpQSRiJMB6J0C0kQonQJs63bo2MJPKuR2iE9skEoHNzoHFjI7tuwPQFG4JhJv8buCvLRfKXXSYRuoBE6BYSoURok7wQIXtN+czKr4ChPYCmj5lieomtagDVn0m/XKIol18ODBsWVBJGIoxHInQLiVAitIlEmGvWmB7hi8DLM9NHkhaFIhw6NKgkjEQYj0ToFhKhRGgT51s3b2ixPImwmFxxhUToAhKhW0iEEqFN8kKErVoFlXyA84PjgW4dzetuAzzZB5jzHbDOlH4dgKbNgTbtgXZG7k0bAvfdCzTrBSxNt5recOWVwCuvBJWEkQjjkQjdQiKUCG0iEdrkdyO4i4GHBgJfLTfyWwMs+RR45k7gRNOzmxizaH5GE+AsI800QaOeCIcMCSoJIxHGIxG6hUQoEdpEIrTI+q+A808CZq0ODgQs7QEcdAsQk4IUi8z/n2ZkmE6EV10lEbqAROgWEqFEaBPnW7cmRhD5NDQ6/3Wg3j3Ao+Z1N21qRP6oEUxrYPhzQN0HTI/RSG/oSGCMKf27m97jHUBtI/tPYxbYX301MHhwUEkYiTAeidAtJEKJ0CZ5IcKWLYNKOeDbz4Bpk4ApbwNzF5ofdIY1FNdcAwwaFFQSRiKMRyJ0C4lQIrSJROg4FOHLLweVhJEI45EI3UIilAht4nzr9thjhS3Ca6+VCF1AInQLiVAitEleiLBFi6BSgFx3HRvhoJIwEmE8EqFbSIQSoU0kQsehCAcODCoJIxHGIxG6hUQoEdrE+daNkZeFLMIaNSRCF5AI3UIilAhtkhcibN48qBQg118PDBgQVBJGIoxHInQLiVAitIlE6DgU4UsvBZWEkQjjkQjdQiKUCG3ifOvWrFlhi/CGGyRCF5AI3UIilAhtkhciZClUbrwR6N8/qCSMRBiPROgWEqFEaBOJ0HEown79gkrCSITxSIRuIRFKhDZxvnXjsGghi/CmmyRCF5AI3UIilAhtkhciZMBMoVKzJtC3b1BJGIkwHonQLSRCidAmEqHjUIQvvhhUEkYijEcidAuJUCK0ifOtGxfTF7IIb75ZInQBidAtJEKJ0CZ5IUKmWStUbrkF6NMnqCSMRBiPROgWEqFEaBOJ0HFuvRV44YWgkjASYTwSoVtIhBKhTZxv3bgFU6GLsHfvoJIwEmE8EqFbSIQSoU3yQoTcnLdQue02idAFJEK3kAglQptIhI5TqxbQq1dQSRiJMB6J0C0kQonQJs63bq1aSYTPPx9UEkYijEcidAuJUCK0SV6IsHHjoFKA1K4tEbqAROgWEqFEaBOJ0HFuvx3o2TOoJIxEGI9E6BYSoURoE+dbt9atJcLnngsqCSMRxiMRuoVEKBHaJC9E2KhRUClA7rhDInQBidAtJEKJ0CYSoePceSfw7LNBJWEkwngkQreQCCVCmzjfurVpIxE+80xQSRiJMB6J0C0kQonQJnkhwoYNg0oBctddEqELSIRuIRFKhDaRCB3n7ruBHj2CSsJIhPFIhG4hEUqENnG+dWvbViJ8+umgkjASYTwSoVtIhBKhTfJChA0aBJUC5J57JEIXkAjdQiKUCG0iETpOnTpA9+5BJWEkwngkQreQCCVCmzjfurVrV9givPdeoFu3oJIwEmE8EqFbSIQSoU3yQoSPPhpUChCK8KmngkrCSITxSIRuIRFKhDaRCB2nbl2J0AUkQreQCCVCmzjfurVvX9givO8+4Mkng0rCSITxSIRuIRFKhDbJCxE+8khQKUAowq5dg0rCSITxSIRuIRFKhDaRCB3n/vslQheQCN1CIpQIbeJ869ahQ2GLsF49yiioJIxEGI9E6BYSoURok7wQYf36QaUAoQi7dAkqCSMRxiMRuoVEKBHaRCJ0nAcekAhdQCJ0C4lQIrSJ861bx46FLULjJnTuHFQSRiKMRyJ0C4lQIrRJXojw4YeDSgFCET7xRFBJGIkwHonQLSRCidAmEqHjPPigROgCEqFbSIQSoU2cb906dSpsET70EPD440ElYSTCeCRCt5AIJUKbON26zZ/PL5Vf3norOFhg8CKAFwO5QCKMRyJ0C4lQIrSJ060bBcDvE0vNmsHBAoMi5PBwLpAI45EI3UIilAht4nTrNnHiBhH26RMcLDAYMSsRlj0SoVtIhBKhTZxu3T75ZIMIR48ODhYYzKrDtZS5QCKMRyJ0C4lQIrSJ060bP2R+n1jeey84WGBQhMy3mgskwngkQreQCCVCmzjduv355wYRprTNBQW3oJIIyx6J0C0kQonQJs63bvw+saxZExwoMBo08DcnzgUSYTwSoVtIhBKhTfJGhIUKRdi2bVBJGIkwHonQLSRCidAmEqHD/PQTULEicMQR/JEHBxNEIoxHInSLQhchHz4sovQ4fxoL+cO+884N779OneBggmQS4XfffRccLTwkQreQCDcUUXrK9DSyW3/GGcDVV/vr5bp3B0aO9JdN/Pabf5tC/rBfeWXD+x88ODiYIJlEmK6cfPLJaNCgAd54441yLUqJ0C0KXYQcJeJT7LRTcECUijJVDKNCZ85kI+NHRt51F8wXG6hcGahQAdhjjw0iYPTkM88AY8YAn30GrF4dPEg5Ztq0De9/ypTgYIKkE+G2227rHStpOfXUU9G4cWOMHz8e3377bfCo+YdE6BaFLsLzzvPbBbaVovQk+2mVAkpyyRJg0CDgsceANm2AO+4Azj0XOPhgX5R77w2ccgpwww1Ao0bAc88BY8cCX3xRPqJMP/98gwgp/6RJJ8IWLVp4x5Iqp59+Opo2bYo333zTaVFKhG5R6CK85Ra/XTA/H2EBZ0WYifXr/bWFU6cC/foBLVsCtWoB55wDHHggsNVWMI0WcNppwE03AU2aAL16ARMm+Mm8164NHshhfv55gwiXLw8OJkg6EY4YMcI7NnDgQK++YsUKzJkzB6+++io6dOiAiy66CFtvvbV3myTK2Wef7cl40qRJWLp0qfcaygKJ0C0KXYSMJudTcFpJlJ68FWEm1q0DFi0CJk/285Q2bw7ceitw5pl+JCZFuf/+/hwlr66aNQNeeAGmwQW++sq/vwvwy57wbyoiGxFmYtmyZZg9ezaGDh1qevFtcP755+Pvf/+79xi2y+abb45q1aqhVatWmDJlSqKilAjdotBF+OSTfruQiyC6QqDcijAT7BEuWAC8+SbQu7c//ModLjjUsO++vijZszQdEtx2m9/j7NvXn6ujJ9gjzQX8sif8m4qwIcJM/Pjjj3j33XcxZMgQr6fHHt9mm23mPYftsuWWW3oibtu2LaZOneqJ8k+OuZcAidAt8kGEYzlPkxDm52Oeg1MXwQFRKgpWhJn44w/gyy+BceOAnj2Bxo39uciqVYF99vFFWakSTI8EuP12oHVroH9/YPp0/iD9OU4b8MvOkgtyIcJMfP/995g5cyZefvllc3HymDeHGDYstkuFChVwwQUXeEO806ZNw5IlS2JFKRG6hasi5Hc2/H7xe1UUxi+89JK/vypjIEraTrCdMU+BHj2CA6JUSIQlhFGr8+YBb7wBPPusP2ZfowZw8snAnnv6wTyHHgrTI/HXAzJNGl3y9ttAcWJC+GVnyQUuiDATDKh525xEvp6GDRvilFNO8V5fEoURs9WrV8fjjz+O+++/3zsmEbqBiyK8+OKLo+/O8phJfY4oXXcdcNJJflT81lv7kZ98G4yaZzthrrkwY8am24mFC/12gUusROmRCBOC6yA//RQYNQp4+ml/F4lrrgFOOAHYfXdgm238HuXOO/v/cu6SPUuO/fNHEEa98svOkgvyQYSbgr059uqmm8vll8xld/369XH88cd7rz+Jsuuuu+Kqq65Ct27d8NFHH3mNs8gNLomQ3zt+F8LvxdpiROKxneC6aa6f5jpqrqdmAIz52mK33fx24rDDgAsv9OcDuTcpI+kZJGieyvtXlB6JsIz49Vfgww+BJ57wg3gY3XrAAcD22wObb+5/yf/2tw0i5Lqhe+/1e58ffJDMHGW+izAT681J43vjfGG/fv3wwAMP4Oijj/beX1Ll0ksvNRc3T5rG7hOsLoTFrznCFRGuMVes4WddOYFFfStXwlxk8XfoXyQ/+CBw5ZXAscduaBu4uN50RlG3rt+esJfIbeuWLQseRGTEnEbhIhxZ4bCr6XDgyCP9Idf99uMCd2CzzfwfwJZb+leN//wncNFFFBnw4ov++sOSUN5FmIl169Zh0aJFmDx5sjmPL5qGpa5pZI7w3n8SZd9990XNmjXRu3dvfPbZZ16jKrLDBRH+8MMP0Wd58803B0dzC5dY8cL41VeZBQrm4g647DLgqKOAHXfU8opskQjzFGYz45e/aVP/y37ccX4QD+ccQlEyoIfzlfxR8MfBeUzOPyxeHDxIEQpdhJngkNfChQsxceJET15333231+iGjaHtctBBB6F27dpe7/WLL76QKFMoaxGyhx9+Tk+wG+YouYpuz3ckwnIK11BSepQfJcheJaVIOZrfridLSpPypETZm7z11lu9H7ZEWDL++OMPzJ8/30sn17NnT9x+++2oVKlS1GDaLhyKu+uuu7yI1i+//NJ7/kKhLEU4ZsyY6DPg70PkPxJhgcKIVw6jcs6Bw6rsVe6+++7RD/ywww7Dueeeu1Gu0UsuucS7+uWCeTZEoniwR8eeHdeXPfvss7jllluw//77R+fXduGwLod3X3nlFU/QxQnicJ2yEiHne8Pz+yEn+UW5QCIUG8EGulevXmjZsqXX28g26nLnnXfGFVdc4TUUbCA0jFd82LhzrpA9jqeffho33nij6bHvk/Z82yjHHHOMNxz+2muvYcGCBXklyrIQIXv44bkr5C3JyiMSociaX3/9FW+99ZaXOu28884rVuo09javvfZa9OjRw5tfKaRhPFv89ttv3rkbNWqUd8HB87nHHnukPd82yoknnohHHnnEe76vvvrKCyZyhVyL8Mgjj4zOi6J/yx8SobDGzz//7EVchqnTwoYjm8KeD3tAnFubN29euRrGyxW8UPn444/x+uuvo0uXLrjyyiuxyy67pD3fNkrVqlW9LbY41Mto21yKMlci5JKb8P1ut912sZmHRH4jEYqcwWwbEyZM8NJQnXbaaVEDk03hXBrn1Pr06ePNd7nUO8kXfvnlF2/Yevjw4V62HK5x3H777dOebxvlzDPPRPPmzb0tthYvXuxJxRa5EOHKlSuj98IREFF+kQiFM/z000/eTvfc8Z4734eNUDaF0Zmcw+nfv783jGez0S0Uwi22hg0bhvbt2ye6xdbf/vY3Ty5MiM5RBEYqF+czS1qEFHf4Wvl9FOUbiVDkDUzIzWG/hx9+GMcdd1zUUGVTuNSA6/641ICNroa4ig+32Hrvvfe8KNRwnphCS3e+S1soYIq4Y8eOXiagr7/+eqPPLEkRzpgxI3odXMMpyj8SoSg3cJslbhhcr169jYIbsimpSw2Yr1QUH2ZamTVrFgYPHlyieeKSlDO4oWiADREOGDAgemwGhonCQCIUBQF7E2wo2UjXqVMHhx9+eNTgZVOYkzRcaqDQ+ZLB8/bOO+94W2w1adKk2PPE6Qp7pCGlFSFfU/i4HF4XhYNEKISB81OcF2IGnTvvvBOHHnpo1ChmU0444QRvtwsuNWDPSBQPXqiwRx9usVWceeKQ0oiQw7Dh4zGoSBQWEqEQWcAoVS4679u3L2rVqoUDDzwwajizKdw3sVGjRhg3bpwXFCSKR9ij5xZbDIgK96HchvsUBZRUhDvttFP0OSnIqjCRCIWwANc9Mn0ak3FzR4n99tsvalyzKZzratasGSZNmuRFb4pNw6AdnjcuqwkprghTt1DiHLEoXCRCIXIAM+l8+umnXgq766+/HnvttVfUCGcqm2++OapVq4ZWrVph2rRpGrozlFaEqVsosYcvChuJUAgHYO+Eu9x3794dV1999UY7nmcqW265pbeMoF27dl7oPzPMlHdKI8K5c+dG5+4/3MRPFDwSoRB5ANfNcbE7G+7LL78cO+64Y9SYZyrcQaR69epeNpl3330Xq1atCh41f0ndCikkGxGm3m/06NHBUVHoSIRClAMoN67ho+wovdTtszIVSpVypWQpW0rXdRgww9fOnnNIJhF27do1es/sFQoRIhEKUQAwbyaHTZk6jcOoHE4NpZCp7Lbbbt5wLYdtmdTbhS22uB6Ur40JEEI2JULu9B++Hy1vEUWRCIUQ3s4hTGXGfSjPOeccL0AnFEemwsAfBgA999xz3n6KudhiqzgirFKlSvRatU+mSIdEKITICHcO4S4STZs29ZZ6hGLJpnApCZeUcGkJl5jY2GIrGxFyTWD4Gjj8K0QcEqEQotT8+OOP3r6ETBoQLnbPtjA5AZcwMME1kxZks8VWJhGmbqF04YUXBrcQIj0SoRAicbhzCNPPMQ0d09GFksqmHHLIIV7aO6Ze4wbA7OltSoTMNhPelxsHC5EJiVAIUeYwzyg3DGZicyY4D0WWqXD+j0m8GTHLTYdT/++ll14KHl2ITSMRCiGchnlGuR8he3/cKuuf//xnJDv2/tLticjAHSGyRSIUQuQ1YUL08ePHexK85pprsHr16uB/hciMRCiEEKKgkQiFEEIUNBKhEEKIgkYiFEIIUdBIhEIIIQoaiVAIIURBIxEKIYQoaCRCIYQQBY1EKIQQoqCRCIUQQhQ0EqEQQoiCRiIUQghR0EiEQgghChqJUAghREEjEQohhChoJEIhhBAFjUQohBCioJEIhRBCFDQSoRBCiIJGIhRCCFHQSIRCCCEKGolQCCFEQSMRCiGEKGgkQiGEEAWNRCiEEKKAAf4/s6QnWBVooE0AAAAASUVORK5CYII=" vertex="1" parent="1">
          <mxGeometry x="210" y="59.99999999999997" width="248.57" height="301.6" as="geometry" />
        </mxCell>
        <mxCell id="S_ji3x8xokRMvjwAo2H5-2" value="千兆交换机" style="fontColor=#0066CC;verticalAlign=top;verticalLabelPosition=bottom;labelPosition=center;align=center;html=1;outlineConnect=0;fillColor=#CCCCCC;strokeColor=#6881B3;gradientColor=none;gradientDirection=north;strokeWidth=2;shape=mxgraph.networks.hub;" vertex="1" parent="1">
          <mxGeometry x="560" y="210" width="100" height="30" as="geometry" />
        </mxCell>
      </root>
    </mxGraphModel>
  </diagram>
</mxfile>
